<svg width="70" height="18" viewBox="0 0 70 18" fill="none" xmlns="http://www.w3.org/2000/svg">
<path d="M0.567986 6.08108H0V1.75391H0.567986V3.6968C0.761621 3.37917 1.17041 3.2183 1.59641 3.2183C2.40537 3.2183 3.07234 3.78343 3.07234 4.67856C3.07234 5.5737 2.38817 6.14296 1.58781 6.14296C1.17902 6.14296 0.761621 5.96145 0.567986 5.65207V6.08521V6.08108ZM1.54478 5.6067C2.06974 5.6067 2.49143 5.22307 2.49143 4.67031C2.49143 4.11756 2.06974 3.75043 1.54478 3.75043C1.06714 3.75043 0.572293 4.06805 0.572293 4.67031C0.572293 5.27257 1.02411 5.6067 1.54478 5.6067Z" fill="#1D1D1B"/>
<path d="M4.08665 7.46186L4.71894 6.08909L3.50781 3.51172H4.13564L5.04399 5.43595L5.95232 3.51172H6.58015L4.70112 7.46186H4.08665Z" fill="#1D1D1B"/>
<g clip-path="url(#clip0_6733_71279)">
<path d="M23.1776 1.90234C22.4003 1.90234 21.4777 2.33013 20.9912 3.15194C20.9465 3.22511 20.8346 3.19134 20.8346 3.10691V2.07121C20.8346 2.02618 20.7955 1.98678 20.7507 1.98678H19.3808C19.336 1.98678 19.2969 2.02618 19.2969 2.07121V10.4637C19.2969 10.5088 19.336 10.5482 19.3808 10.5482H20.7507C20.7955 10.5482 20.8346 10.5088 20.8346 10.4637V6.30406C20.8346 4.87435 21.5951 3.42212 23.0378 3.42212C23.3453 3.42212 23.569 3.46152 23.8262 3.55721L23.8766 3.57409V1.97552H23.8486C23.6249 1.91923 23.418 1.90234 23.1776 1.90234Z" fill="#1D1D1B"/>
<path d="M56.4256 1.81641C55.2458 1.81641 54.2281 2.41869 53.7192 3.40935C53.6857 3.47127 53.6018 3.47127 53.5682 3.40935C53.0873 2.39617 52.1703 1.81641 51.024 1.81641C50.051 1.81641 49.1898 2.24419 48.6419 2.97031C48.5915 3.03223 48.4909 2.99845 48.4909 2.91965V2.0697C48.4909 2.02467 48.4517 1.98527 48.407 1.98527H47.037C46.9923 1.98527 46.9531 2.02467 46.9531 2.0697V10.4622C46.9531 10.5073 46.9923 10.5467 47.037 10.5467H48.407C48.4517 10.5467 48.4909 10.5073 48.4909 10.4622V6.30255C48.4909 4.46757 49.4191 3.23486 50.8003 3.23486C51.818 3.23486 52.4275 4.09044 52.4275 5.52015V10.4622C52.4275 10.5073 52.4666 10.5467 52.5114 10.5467H53.8814C53.9261 10.5467 53.9652 10.5073 53.9652 10.4622V6.30255C53.9652 4.43942 54.8655 3.23486 56.2579 3.23486C57.2868 3.23486 57.9019 4.09044 57.9019 5.52015V10.4622C57.9019 10.5073 57.941 10.5467 57.9858 10.5467H59.3557C59.4005 10.5467 59.4396 10.5073 59.4396 10.4622V5.30063C59.4396 3.1842 58.2598 1.81641 56.4256 1.81641Z" fill="#1D1D1B"/>
<path d="M43.8765 2.5217C44.5806 2.5217 45.1514 1.9572 45.1514 1.26085C45.1514 0.564501 44.5806 0 43.8765 0C43.1724 0 42.6016 0.564501 42.6016 1.26085C42.6016 1.9572 43.1724 2.5217 43.8765 2.5217Z" fill="#6429CD"/>
<path d="M45.1505 6.21358C45.1505 3.5399 42.9641 1.36719 40.2745 1.36719C37.5848 1.36719 35.3984 3.53427 35.3984 6.21358C35.3984 8.89288 37.5848 11.06 40.2745 11.06C42.9641 11.06 45.1505 8.89288 45.1505 6.21358ZM36.9306 6.23046C36.9306 4.37859 38.4404 2.8757 40.308 2.8757C42.1757 2.8757 43.6855 4.37859 43.6855 6.23046C43.6855 8.08234 42.1757 9.58522 40.308 9.58522C38.4404 9.58522 36.9306 8.08234 36.9306 6.23046Z" fill="#6429CD"/>
<path d="M41.8283 10.9141C39.983 10.9141 38.4844 12.4001 38.4844 14.2351C38.4844 16.07 39.983 17.556 41.8283 17.556C43.6736 17.556 45.1722 16.07 45.1722 14.2351C45.1722 12.4001 43.6736 10.9141 41.8283 10.9141ZM41.8506 16.1714C40.777 16.1714 39.9047 15.3045 39.9047 14.2407C39.9047 13.1768 40.777 12.31 41.8506 12.31C42.9243 12.31 43.7966 13.1768 43.7966 14.2407C43.7966 15.3045 42.9243 16.1714 41.8506 16.1714Z" fill="#6429CD"/>
<path d="M12.8821 1.66016C11.6742 1.66016 10.5838 2.12735 9.76744 2.88723V1.67141H8.33594V5.96055C8.33594 6.03373 8.33594 6.10127 8.33594 6.17445C8.33594 6.24762 8.33594 6.31517 8.33594 6.38834V13.717H9.77303V9.46729C10.5894 10.2272 11.6798 10.6944 12.8877 10.6944C15.3984 10.6944 17.4338 8.67363 17.4338 6.18008C17.4338 3.68652 15.3984 1.66016 12.8821 1.66016ZM12.9156 9.32094C11.1766 9.32094 9.76744 7.91937 9.76744 6.19696C9.76744 4.47455 11.1766 3.07298 12.9156 3.07298C14.6547 3.07298 16.0638 4.47455 16.0638 6.19696C16.0638 7.91937 14.6547 9.32094 12.9156 9.32094Z" fill="#1D1D1B"/>
<path d="M33.647 5.99433V1.66016H32.2155V2.91538C31.3991 2.15549 30.3087 1.6883 29.1008 1.6883C26.5901 1.6883 24.5547 3.70904 24.5547 6.20259C24.5547 8.69615 26.5901 10.7169 29.1008 10.7169C30.3087 10.7169 31.3991 10.2497 32.2155 9.4898V10.7H33.647V6.41086C33.647 6.33768 33.647 6.27014 33.647 6.19696C33.647 6.12379 33.647 6.05624 33.647 5.98307V5.99433ZM29.0729 9.32094C27.3338 9.32094 25.9247 7.91937 25.9247 6.19696C25.9247 4.47455 27.3338 3.07298 29.0729 3.07298C30.8119 3.07298 32.221 4.47455 32.221 6.19696C32.221 7.91937 30.8119 9.32094 29.0729 9.32094Z" fill="#1D1D1B"/>
<path d="M69.9985 6.20822C69.9985 6.13505 69.9985 6.0675 69.9985 5.99433V1.66016H68.567V2.91538C67.7506 2.15549 66.6602 1.6883 65.4524 1.6883C62.9417 1.6883 60.9062 3.70904 60.9062 6.20259C60.9062 8.69615 62.9417 10.7169 65.4524 10.7169C66.6602 10.7169 67.7506 10.2497 68.567 9.48981V10.7H69.9985V6.41086C69.9985 6.33768 69.9985 6.27014 69.9985 6.19696V6.20822ZM65.4188 9.32094C63.6798 9.32094 62.2706 7.91937 62.2706 6.19696C62.2706 4.47455 63.6798 3.07298 65.4188 3.07298C67.1579 3.07298 68.567 4.47455 68.567 6.19696C68.567 7.91937 67.1579 9.32094 65.4188 9.32094Z" fill="#1D1D1B"/>
</g>
<defs>
<clipPath id="clip0_6733_71279">
<rect width="61.6608" height="17.5562" fill="white" transform="translate(8.33594)"/>
</clipPath>
</defs>
</svg>
